# xmcd CD database file
# Generated: Sat Apr 3 09:51:22 2004 by KSCD
# 
# Track frame offsets:
#       150
#       15453
#       31573
#       46092
#       66302
#       85486
#       98688
#       113503
#       128896
#       142102
#       154358
#       169496
#       187181
#       206224
#       221207
#       234717
#       247394
#       265093
#       280494
#       296263
#       310831
#       325957
#       343669
#
# Disc length: 4789 seconds
#
# Revision: 1
# Processed by: cddbd v1.5PL3 Copyright (c) Steve Scherf et al.
# Submitted via: Kscd 1.3.3
#
DISCID=6812b317
DTITLE=Various Artist - Matt's Country (Mostly) Mix
DYEAR=1900
DGENRE=
TTITLE0=Beer for My Horses
TTITLE1=I'm from the Country
TTITLE2=You Make Me that Way
TTITLE3=Only in America
TTITLE4=Who Wouldn't Wanna be Me
TTITLE5=Except for Monday
TTITLE6=Boot Scoot Boogie
TTITLE7=Ride'em High Ride'em Low
TTITLE8=We'll Burn that Bridge
TTITLE9=Back in the USSR
TTITLE10=She Said Yes
TTITLE11=Grown Men don't Cry
TTITLE12=I'm Already there
TTITLE13=Bye Bye
TTITLE14=Where the Blacktop Ends
TTITLE15=I Hope You Dance
TTITLE16=Like a Good Cowboy
TTITLE17=Independence Day
TTITLE18=
TTITLE19=
TTITLE20=
TTITLE21=
TTITLE22=
EXTD=
EXTT0=
EXTT1=
EXTT2=
EXTT3=
EXTT4=
EXTT5=
EXTT6=
EXTT7=
EXTT8=
EXTT9=
EXTT10=
EXTT11=
EXTT12=
EXTT13=
EXTT14=
EXTT15=
EXTT16=
EXTT17=
EXTT18=
EXTT19=
EXTT20=
EXTT21=
EXTT22=
PLAYORDER=
